<svg width="680" height="780" viewBox="0 0 680 780" xmlns="http://www.w3.org/2000/svg">
  <defs>
    <clipPath id="hex-clip">
      <polygon points="340,55 625,218 625,562 340,725 55,562 55,218"/>
    </clipPath>
    <radialGradient id="bg-grad" cx="50%" cy="40%" r="65%">
      <stop offset="0%" stop-color="#e8f5ec"/>
      <stop offset="100%" stop-color="#c8e6d0"/>
    </radialGradient>
  </defs>

  <!-- Hex background -->
  <g clip-path="url(#hex-clip)">
    <rect x="0" y="0" width="680" height="780" fill="url(#bg-grad)"/>
  </g>

  <!-- Tree silhouettes -->
  <g clip-path="url(#hex-clip)" opacity="0.18">
    <polygon points="80,660 105,590 130,660" fill="#2d6a3f"/>
    <polygon points="84,625 105,550 126,625" fill="#2d6a3f"/>
    <rect x="100" y="660" width="10" height="30" fill="#1a3d26"/>
    <polygon points="160,660 190,575 220,660" fill="#2d6a3f"/>
    <polygon points="164,620 190,530 216,620" fill="#2d6a3f"/>
    <polygon points="169,586 190,500 211,586" fill="#3a7d50"/>
    <rect x="185" y="660" width="11" height="30" fill="#1a3d26"/>
    <polygon points="255,660 285,560 315,660" fill="#2d6a3f"/>
    <polygon points="259,618 285,514 311,618" fill="#3a7d50"/>
    <rect x="280" y="660" width="11" height="30" fill="#1a3d26"/>
    <polygon points="320,660 355,545 390,660" fill="#2d6a3f"/>
    <polygon points="324,614 355,498 386,614" fill="#2d6a3f"/>
    <polygon points="330,574 355,460 380,574" fill="#3a7d50"/>
    <rect x="349" y="660" width="13" height="30" fill="#1a3d26"/>
    <polygon points="395,660 425,560 455,660" fill="#2d6a3f"/>
    <polygon points="399,618 425,514 451,618" fill="#3a7d50"/>
    <rect x="420" y="660" width="11" height="30" fill="#1a3d26"/>
    <polygon points="460,660 490,575 520,660" fill="#2d6a3f"/>
    <polygon points="464,620 490,530 516,620" fill="#2d6a3f"/>
    <polygon points="469,586 490,500 511,586" fill="#3a7d50"/>
    <rect x="485" y="660" width="11" height="30" fill="#1a3d26"/>
    <polygon points="550,660 575,590 600,660" fill="#2d6a3f"/>
    <polygon points="554,625 575,550 596,625" fill="#2d6a3f"/>
    <rect x="570" y="660" width="10" height="30" fill="#1a3d26"/>
  </g>

  <!-- Panel background -->
  <g clip-path="url(#hex-clip)">
    <rect x="150" y="240" width="380" height="250" rx="6" fill="white" opacity="0.55"/>
  </g>

  <!-- Null ref line -->
  <line x1="340" y1="248" x2="340" y2="478" stroke="#1a6b35" stroke-width="1.4" stroke-dasharray="5 4" opacity="0.5" clip-path="url(#hex-clip)"/>

  <!-- Axis -->
  <line x1="165" y1="480" x2="515" y2="480" stroke="#2d6a3f" stroke-width="0.8" opacity="0.4" clip-path="url(#hex-clip)"/>

  <!-- Row 1 -->
  <line x1="198" y1="278" x2="308" y2="278" stroke="#1a6b35" stroke-width="2" opacity="0.8" clip-path="url(#hex-clip)"/>
  <circle cx="248" cy="278" r="5.5" fill="#1a6b35" opacity="0.9" clip-path="url(#hex-clip)"/>
  <line x1="198" y1="271" x2="198" y2="285" stroke="#1a6b35" stroke-width="2" opacity="0.6" clip-path="url(#hex-clip)"/>
  <line x1="308" y1="271" x2="308" y2="285" stroke="#1a6b35" stroke-width="2" opacity="0.6" clip-path="url(#hex-clip)"/>

  <!-- Row 2 -->
  <line x1="298" y1="318" x2="448" y2="318" stroke="#1a6b35" stroke-width="2" opacity="0.8" clip-path="url(#hex-clip)"/>
  <circle cx="388" cy="318" r="5" fill="#1a6b35" opacity="0.9" clip-path="url(#hex-clip)"/>
  <line x1="298" y1="311" x2="298" y2="325" stroke="#1a6b35" stroke-width="2" opacity="0.6" clip-path="url(#hex-clip)"/>
  <line x1="448" y1="311" x2="448" y2="325" stroke="#1a6b35" stroke-width="2" opacity="0.6" clip-path="url(#hex-clip)"/>

  <!-- Row 3 -->
  <line x1="262" y1="358" x2="402" y2="358" stroke="#1a6b35" stroke-width="2" opacity="0.8" clip-path="url(#hex-clip)"/>
  <circle cx="322" cy="358" r="5" fill="#1a6b35" opacity="0.9" clip-path="url(#hex-clip)"/>
  <line x1="262" y1="351" x2="262" y2="365" stroke="#1a6b35" stroke-width="2" opacity="0.6" clip-path="url(#hex-clip)"/>
  <line x1="402" y1="351" x2="402" y2="365" stroke="#1a6b35" stroke-width="2" opacity="0.6" clip-path="url(#hex-clip)"/>

  <!-- Row 4 -->
  <line x1="210" y1="398" x2="374" y2="398" stroke="#1a6b35" stroke-width="2" opacity="0.8" clip-path="url(#hex-clip)"/>
  <circle cx="274" cy="398" r="5" fill="#1a6b35" opacity="0.9" clip-path="url(#hex-clip)"/>
  <line x1="210" y1="391" x2="210" y2="405" stroke="#1a6b35" stroke-width="2" opacity="0.6" clip-path="url(#hex-clip)"/>
  <line x1="374" y1="391" x2="374" y2="405" stroke="#1a6b35" stroke-width="2" opacity="0.6" clip-path="url(#hex-clip)"/>

  <!-- Row 5 -->
  <line x1="290" y1="438" x2="456" y2="438" stroke="#1a6b35" stroke-width="2" opacity="0.8" clip-path="url(#hex-clip)"/>
  <circle cx="374" cy="438" r="5" fill="#1a6b35" opacity="0.9" clip-path="url(#hex-clip)"/>
  <line x1="290" y1="431" x2="290" y2="445" stroke="#1a6b35" stroke-width="2" opacity="0.6" clip-path="url(#hex-clip)"/>
  <line x1="456" y1="431" x2="456" y2="445" stroke="#1a6b35" stroke-width="2" opacity="0.6" clip-path="url(#hex-clip)"/>

  <!-- Package name -->
  <text x="340" y="590"
    text-anchor="middle"
    font-family="Georgia, 'Times New Roman', serif"
    font-size="72"
    font-weight="bold"
    letter-spacing="1"
    fill="#0f3d20"
    opacity="0.92"
    clip-path="url(#hex-clip)">forrest</text>

  <!-- Hex border -->
  <polygon points="340,55 625,218 625,562 340,725 55,562 55,218"
    fill="none"
    stroke="#1a6b35"
    stroke-width="6"
    opacity="0.75"/>
</svg>
